<svg width="50" height="51" viewBox="0 0 50 51" fill="none" xmlns="http://www.w3.org/2000/svg">
<g clip-path="url(#clip0_175_390)">
<path d="M25 50.4551C38.8071 50.4551 50 39.2622 50 25.4551C50 11.648 38.8071 0.455078 25 0.455078C11.1929 0.455078 0 11.648 0 25.4551C0 39.2622 11.1929 50.4551 25 50.4551Z" fill="#F0F0F0"/>
<path d="M50 25.4551C50 39.2621 38.807 50.4551 25 50.4551C11.193 50.4551 0 39.2621 0 25.4551" fill="#496E2D"/>
<path d="M43.2628 17.8522C42.3688 15.3168 39.953 13.499 37.1117 13.499H31.5215C27.9196 13.499 24.9997 16.4189 24.9997 20.0208C24.9997 21.1976 25.313 22.3285 25.8582 23.2816C23.7823 23.2646 21.8611 23.296 20.6519 23.2816C20.6519 20.7664 20.6519 17.5623 20.6519 16.8919L20.9087 16.6351C22.0616 15.4821 21.6771 13.5606 21.6771 13.5606C21.6771 13.5606 19.7559 13.1764 18.6029 14.3293L17.2593 15.6729H15.7605C12.4588 15.6729 9.78232 18.3495 9.78232 21.6512H14.1302V26.5425C14.1302 27.2579 14.2744 27.9395 14.5351 28.5602L13.0432 29.8033H10.8692V27.6294H8.69531V31.9772H18.4779V36.3251H16.304V38.499H20.6519V34.1512L22.6445 31.7599H27.3548L29.3475 34.1512V36.3251H27.1735V38.499H35.8691V26.5424C35.8691 24.7415 37.3291 23.2815 39.13 23.2815C39.1763 23.2815 39.2222 23.2832 39.2681 23.2851C39.178 22.9366 39.13 22.5713 39.13 22.1946C39.1302 19.8656 40.9615 17.9645 43.2628 17.8522V17.8522ZM31.5215 36.325V31.7598H31.7026L33.6953 34.1511V36.325H31.5215Z" fill="#D80027"/>
</g>
<defs>
<clipPath id="clip0_175_390">
<rect width="50" height="50" fill="white" transform="translate(0 0.455078)"/>
</clipPath>
</defs>
</svg>
